# xmcd
#
# Track frame offsets:
# 150
# 11357
# 23122
# 37084
# 52339
# 66612
# 78637
# 89755
# 101789
# 117391
#
# Disc length: 1741 seconds
#
#
# Revision: 0
# Processed by: cddbd v1.5.2PL0 Copyright (c) Steve Scherf et al.
# Submitted via: FreeRIP 2.951 
#
DISCID=9206cb0a
DTITLE=Conway Twitty - Conway Twitty
DYEAR=1900
DGENRE=Country
TTITLE0=Hello Darlin'
TTITLE1=To See My Angel Cry
TTITLE2=Fifteen Years Ago
TTITLE3=Lost Her Love on Our Last Date
TTITLE4=You've Never Been This Far Before
TTITLE5=She Needs Someone to Hold Her When She Cries
TTITLE6=As Soon As I Hang Up The Phone
TTITLE7=Lying Here With Linda On My Mind
TTITLE8=Touch the Hand
TTITLE9=After All The Good Is Gone
EXTD=
EXTT0=
EXTT1=
EXTT2=
EXTT3=
EXTT4=
EXTT5=
EXTT6=
EXTT7=
EXTT8=
EXTT9=
PLAYORDER=
